<svg width="28" height="24" viewBox="0 0 28 24" fill="none" xmlns="http://www.w3.org/2000/svg">
<path d="M1.96742 7.67099C1.97408 7.53794 2.08389 7.43347 2.21711 7.43347H17.8589C17.9921 7.43347 18.1019 7.53793 18.1086 7.67099L18.844 22.3798C18.8512 22.5226 18.7373 22.6423 18.5944 22.6423H1.48167C1.3387 22.6423 1.22484 22.5226 1.23198 22.3798L1.96742 7.67099Z" stroke="#313133" stroke-width="1.5"/>
<path fill-rule="evenodd" clip-rule="evenodd" d="M13.9399 10.0253C13.9593 9.62919 13.9684 9.21132 13.9684 8.77215C13.9684 6.6169 13.7326 4.96517 13.1366 3.88433C12.8577 3.37857 12.5096 3.01677 12.0658 2.76966C11.6141 2.51813 10.9728 2.33545 10.038 2.33545C9.10316 2.33545 8.46183 2.51813 8.01014 2.76966C7.56638 3.01677 7.21822 3.37857 6.93936 3.88433C6.3434 4.96517 6.1076 6.6169 6.1076 8.77215C6.1076 9.21076 6.10778 9.62776 6.11276 10.0253H4.6126C4.6076 9.61714 4.6076 9.19857 4.6076 8.77215C4.6076 4.38883 5.51267 0.835449 10.038 0.835449C14.5633 0.835449 15.4684 4.38883 15.4684 8.77215C15.4684 9.19857 15.4605 9.61714 15.4419 10.0253H13.9399Z" fill="#313133"/>
<circle cx="20.4811" cy="7.51898" r="7.51898" fill="#313133"/>
<path d="M19.3177 7.32545H19.6587C19.8787 7.32545 20.0914 7.30712 20.2967 7.27045C20.5094 7.22645 20.6964 7.15678 20.8577 7.06145C21.0191 6.95878 21.1474 6.82312 21.2427 6.65445C21.3454 6.48578 21.3967 6.27678 21.3967 6.02745C21.3967 5.82945 21.3601 5.65345 21.2867 5.49945C21.2134 5.33812 21.1107 5.20245 20.9787 5.09245C20.8541 4.98245 20.7074 4.89812 20.5387 4.83945C20.3774 4.77345 20.2051 4.74045 20.0217 4.74045C19.6917 4.74045 19.4094 4.82478 19.1747 4.99345C18.9474 5.16212 18.7751 5.39678 18.6577 5.69745L17.6897 5.35645C17.8804 4.88712 18.1847 4.52045 18.6027 4.25645C19.0281 3.98512 19.5157 3.84945 20.0657 3.84945C20.3884 3.84945 20.6927 3.89712 20.9787 3.99245C21.2721 4.08045 21.5287 4.21245 21.7487 4.38845C21.9687 4.56445 22.1411 4.78445 22.2657 5.04845C22.3977 5.31245 22.4637 5.61678 22.4637 5.96145C22.4637 6.18145 22.4271 6.38678 22.3537 6.57745C22.2877 6.76812 22.1924 6.94045 22.0677 7.09445C21.9504 7.24845 21.8074 7.38045 21.6387 7.49045C21.4701 7.60045 21.2867 7.68112 21.0887 7.73245V7.75445C21.3161 7.79845 21.5251 7.87545 21.7157 7.98545C21.9137 8.09545 22.0824 8.23478 22.2217 8.40345C22.3611 8.56478 22.4711 8.75178 22.5517 8.96445C22.6324 9.17712 22.6727 9.40812 22.6727 9.65745C22.6727 10.0461 22.5994 10.3908 22.4527 10.6914C22.3061 10.9848 22.1117 11.2304 21.8697 11.4284C21.6277 11.6264 21.3491 11.7768 21.0337 11.8794C20.7184 11.9821 20.3957 12.0334 20.0657 12.0334C19.4497 12.0334 18.9071 11.8941 18.4377 11.6154C17.9684 11.3368 17.6274 10.9041 17.4147 10.3174L18.4047 9.98745C18.5221 10.3248 18.7201 10.5998 18.9987 10.8124C19.2847 11.0251 19.6331 11.1314 20.0437 11.1314C20.2417 11.1314 20.4324 11.1021 20.6157 11.0434C20.8064 10.9774 20.9751 10.8821 21.1217 10.7574C21.2684 10.6328 21.3857 10.4788 21.4737 10.2954C21.5617 10.1121 21.6057 9.89578 21.6057 9.64645C21.6057 9.37512 21.5471 9.14778 21.4297 8.96445C21.3124 8.78112 21.1584 8.63445 20.9677 8.52445C20.7844 8.40712 20.5754 8.32645 20.3407 8.28245C20.1061 8.23112 19.8751 8.20545 19.6477 8.20545H19.3177V7.32545Z" fill="white"/>
</svg>
